<svg xmlns="http://www.w3.org/2000/svg" width="662" height="200" style="width:662px;height:200px;background:0 0;fill:none"><svg xmlns="http://www.w3.org/2000/svg" class="role-diagram-draw-area"><g class="shapes-region" style="stroke:#000;fill:none"><g class="composite-shape axis2d" style="stroke-width:1;stroke:#000"><path class="real" d="M219.16 52.08h27.98m-25.18-25.19v27.98"/><path d="m240.14 47.08 7 5-7 5M216.96 33.89l5-7 5 7"/></g><g class="arrow-line"><path class="connection real" d="m414.33 110.34-29.93 38.33" style="stroke:#000;stroke-width:1;fill:none;fill-opacity:1"/><circle r="3.35" fill="#000" transform="rotate(127.99 155.937 168.097)" style="stroke:#000;fill:#000;stroke-width:1"/></g><g class="arrow-line"><path class="connection real" d="m330.4 17.67-106 130" style="stroke:#000;stroke-width:1;fill:none;fill-opacity:1"/><circle r="3.35" fill="#000" transform="rotate(129.19 77.133 127.123)" style="stroke:#000;fill:#000;stroke-width:1"/></g><g class="arrow-line"><path class="connection real" stroke-dasharray="6 6" d="m224.4 147.67 160 1" style="stroke:#000;stroke-width:1;fill:none;fill-opacity:1"/></g><g class="arrow-line"><path class="connection real" stroke-dasharray="6 6" d="m303.93 18.61.47 129.56" style="stroke:#000;stroke-width:1;fill:none;fill-opacity:1"/></g><g class="arrow-line"><path class="connection real" stroke-dasharray="1.125 3.35" d="m286.6 70.61 97.8 78.06" style="stroke:#000;stroke-width:1;fill:none;fill-opacity:1"/></g><g class="composite-shape"><path class="real" d="M280.6 68.08q-5.3-4.58-9.87.73l-20.97 24.32q-6.53 7.58-11.83 3.01 5.3 4.57-1.23 12.14m1.96-2.27-22.92 26.59q-4.57 5.31.73 9.88" style="stroke-width:1;stroke:#000;fill:none;fill-opacity:1"/></g><g class="composite-shape"><path class="real" d="m293.51 75.82-5.2 6.24-6.25-5.2 5.21-6.25Z" style="stroke-width:1;stroke:#000;fill:none;fill-opacity:1"/></g><g class="arrow-line"><path class="connection real" d="m411.4 38.34-22.59 22.59" style="stroke:#000;stroke-width:1;fill:none;fill-opacity:1"/><path d="M10.93-3.29Q4.96-.45 0 0q4.96.45 10.93 3.29" transform="rotate(-45 268.953 -436.462)" style="stroke:#000;stroke-width:1"/></g><g class="arrow-line"><path class="connection real" d="m429.4 55.67-22.59 22.59" style="stroke:#000;stroke-width:1;fill:none;fill-opacity:1"/><path d="M10.93-3.29Q4.96-.45 0 0q4.96.45 10.93 3.29" transform="rotate(-45 298.876 -449.524)" style="stroke:#000;stroke-width:1"/></g><g class="arrow-line"><path class="connection real" d="m390.73 23.01-22.58 22.58" style="stroke:#000;stroke-width:1;fill:none;fill-opacity:1"/><path d="M10.93-3.29Q4.96-.45 0 0q4.96.45 10.93 3.29" transform="rotate(-45 240.11 -419.182)" style="stroke:#000;stroke-width:1"/></g><g class="arrow-line"><path class="connection real" d="m304.4 148.17 67.93-81.83" style="stroke:#000;stroke-width:1;fill:none;fill-opacity:1"/></g><g class="composite-shape"><path class="real" d="M304.21 108.37c.06-.01.13-.01.19-.01 9.73 0 18.64 3.49 25.55 9.29l-25.55 30.52Z" style="stroke-width:1;stroke:none;fill:none;fill-opacity:1" stroke="none"/><path class="real" d="M304.4 108.36c9.73 0 18.64 3.49 25.55 9.29" style="stroke-width:1;stroke:#000;fill:none;fill-opacity:1"/><path d="M10.72-5.15 0 0l10.72 5.15L7.12 0Z" transform="rotate(8.02 -620.805 2223.91)" stroke="none" fill="#000" style="stroke:none;fill:#000;stroke-width:1"/></g></g></svg><svg xmlns="http://www.w3.org/2000/svg" xmlns:xlink="http://www.w3.org/1999/xlink" width="660" height="198" style="width:660px;height:198px;font-family:Asana-Math,Asana;background:0 0"><path d="M248.491 47.518c.204.108.422.163.585.163.449 0 .98-.395 1.4-1.034l1.034-1.591.15.938c.177 1.156.49 1.687.98 1.687.298 0 .734-.231 1.169-.626l.666-.598-.122-.259c-.49.408-.83.612-1.047.612-.204 0-.381-.136-.517-.408-.123-.258-.272-.761-.34-1.156l-.245-1.373.476-.667c.64-.884 1.006-1.196 1.428-1.196.218 0 .38.108.449.312l.19-.054.204-1.156c-.163-.095-.285-.136-.408-.136-.544 0-1.088.49-1.931 1.74l-.503.749-.082-.653c-.163-1.346-.53-1.836-1.333-1.836-.353 0-.652.109-.775.286l-.789 1.128.232.136c.408-.462.68-.652.938-.652.449 0 .748.557.98 1.89l.149.843-.544.843c-.585.912-1.047 1.347-1.428 1.347-.204 0-.354-.055-.381-.123l-.15-.38-.272.04c0 .476-.108.83-.163 1.184ZM210.536 25.267c-.014.095-.014.177-.014.245 0 .584.504 1.06 1.116 1.06 1.441 0 2.937-1.686 3.74-4.202l1.917-5.984-.15-.122c-.394.15-.707.23-1.006.258l-.476 1.795c-.163.64-.639 1.632-1.088 2.299-.476.693-1.142 1.292-1.441 1.292-.164 0-.286-.313-.272-.653l.217-2.815c.027-.422.055-.939.055-1.32 0-.612-.096-.856-.327-.856-.177 0-.367.095-1.02.544l-1.115.761.15.245.68-.408c.068-.04.217-.163.34-.163.19 0 .299.258.299.707 0 .014 0 .095-.014.204l-.23 3.305-.015.544c0 .57.245.965.585.965.503 0 1.646-1.156 2.666-2.692l-.667 2.325c-.693 2.407-1.373 3.4-2.325 3.4a.83.83 0 0 1-.843-.843c0-.068.013-.177.027-.3l-.136-.054Z" stroke="#000" stroke-width=".1088" fill="#000"/><path d="M229.442 90.535c2.67 0 4.59-2.635 4.624-5.151.051-3.111-4.063-3.74-3.876-5.695.12-1.292 2.193-1.14 3.162-.561h.17c-.05-.204-.102-.442-.204-.663-1.615-.357-4.148-.068-4.335 1.649-.119.969 1.156 1.768 1.87 2.26v.103c-2.43.544-3.995 2.618-4.029 5.066-.034 1.819.697 2.992 2.618 2.992Zm.442-.476c-1.428 0-1.768-1.48-1.75-2.635.033-2.176.798-4.148 3.076-4.777 1.054.833 1.598 1.666 1.581 3.043-.034 1.615-.9 4.369-2.907 4.369Z" stroke="#000" stroke-width=".136" fill="#000"/><text x="192.331" y="163" style="white-space:pre;stroke:none;fill:#000;fill-opacity:1;font-size:10.5px;font-family:Arial,Helvetica,sans-serif;font-weight:400;font-style:normal;dominant-baseline:text-before-edge;text-decoration:none solid #000">left microphone</text><text x="346.331" y="161.663" style="white-space:pre;stroke:none;fill:#000;fill-opacity:1;font-size:10.5px;font-family:Arial,Helvetica,sans-serif;font-weight:400;font-style:normal;dominant-baseline:text-before-edge;text-decoration:none solid #000">right microphone</text><text x="413" y="15.662" style="white-space:pre;stroke:none;fill:#000;fill-opacity:1;font-size:10.5px;font-family:Arial,Helvetica,sans-serif;font-weight:400;font-style:normal;dominant-baseline:text-before-edge;text-decoration:none solid #000">sound wave</text><path d="M312.483 128.022c2.808 0 3.986-3.951 4.034-6.188.024-1.357-.357-2.357-1.868-2.357-3.094 0-4.13 3.451-4.165 5.986-.024 1.416.38 2.559 1.999 2.559Zm1.951-8.235c1.607 0 1.25 2.201 1 3.51h-3.76c.297-1.237 1.225-3.51 2.76-3.51Zm-1.76 7.89c-1.798 0-1.262-2.952-1.072-3.999h3.76c-.297 1.333-.987 3.999-2.689 3.999Z" stroke="#000" stroke-width=".0952" fill="#000"/><path d="m309.211 160.657-.204-.187c-.884.442-1.496.595-2.72.714l-.068.357h.816c.408 0 .578.12.578.408 0 .136-.017.29-.034.408l-.476 2.618c-.51-.153-.969-.238-1.394-.238-1.173 0-2.771 1.224-3.553 2.703-.527.986-.867 2.601-.867 4.03 0 1.104.255 1.648.748 1.648.459 0 1.088-.289 1.666-.748.918-.748 1.479-1.41 2.618-3.128l-.391 1.547c-.187.748-.272 1.292-.272 1.734 0 .357.153.561.442.561.289 0 .697-.204 1.275-.629l1.377-1.02-.17-.323-.748.527c-.238.17-.51.29-.663.29-.136 0-.238-.154-.238-.392 0-.136.017-.289.136-.782Zm-6.273 11.271c-.272 0-.425-.238-.425-.663 0-2.142.782-4.794 1.615-5.44.221-.17.544-.255 1.003-.255.748 0 1.241.102 1.802.391l-.204 1.003c-.629 3.06-3.026 4.964-3.791 4.964Z" stroke="#000" stroke-width=".136" fill="#000"/></svg></svg>
